<svg xmlns="http://www.w3.org/2000/svg" width="40" height="40" viewBox="0 0 40 40" fill="none">
  <path d="M2.87554 2.95339C3.43688 2.39393 4.19779 2.07969 4.99115 2.07969C5.78451 2.07969 6.54542 2.39393 7.10676 2.95339L19.9601 15.7797L32.8134 2.95339C33.1793 2.56014 33.6448 2.27265 34.1607 2.12123C34.6766 1.96981 35.2239 1.96005 35.7449 2.09299C36.2659 2.22593 36.7414 2.49663 37.1211 2.87659C37.5009 3.25655 37.771 3.73169 37.9028 4.25195C38.0358 4.7713 38.0263 5.31679 37.8753 5.8312C37.7243 6.34562 37.4374 6.81002 37.0446 7.17571L24.1913 20.002L37.0446 32.8283C37.4387 33.1935 37.7268 33.6579 37.8785 34.1728C38.0303 34.6876 38.04 35.2338 37.9068 35.7537C37.7736 36.2736 37.5023 36.748 37.1216 37.127C36.7408 37.506 36.2647 37.7755 35.7433 37.907C35.2229 38.0397 34.6762 38.0302 34.1607 37.8795C33.6452 37.7289 33.1799 37.4425 32.8134 37.0506L19.9601 24.2243L7.10676 37.0506C6.53935 37.579 5.78851 37.8668 5.01256 37.8534C4.2366 37.8401 3.49617 37.5265 2.94739 36.9789C2.39864 36.4313 2.08444 35.6924 2.07103 34.9181C2.05763 34.1438 2.34607 33.3945 2.87554 32.8283L15.7289 20.002L2.87554 7.17571C2.3149 6.61556 2 5.85624 2 5.06455C2 4.27286 2.3149 3.51355 2.87554 2.95339Z" fill="#D1D5D7"/>
</svg>