<svg width="77" height="77" viewBox="0 0 77 77" fill="none" xmlns="http://www.w3.org/2000/svg">
<g id="ph:open-ai-logo">
<path id="Vector" d="M67.4716 34.3612C68.5961 31.6086 68.9719 28.6074 68.5608 25.6626C68.1497 22.7177 66.9664 19.9342 65.1311 17.5948C63.2958 15.2553 60.8739 13.4434 58.1116 12.3432C55.3492 11.2429 52.3448 10.8935 49.4037 11.3304C47.581 8.98257 45.1695 7.15884 42.4141 6.04441C39.6586 4.92998 36.6573 4.56453 33.7149 4.98518C30.7725 5.40583 27.9939 6.59758 25.661 8.43944C23.3282 10.2813 21.5243 12.7077 20.4325 15.4722C17.4864 15.8754 14.6996 17.0514 12.3553 18.8806C10.0109 20.7098 8.19261 23.1269 7.08506 25.8865C5.97752 28.6461 5.62023 31.6496 6.0495 34.592C6.47878 37.5344 7.67933 40.3106 9.52914 42.6387C8.62646 44.8509 8.20472 47.2297 8.29192 49.6174C8.37913 52.005 8.97329 54.3468 10.035 56.4872C11.0966 58.6275 12.6015 60.5176 14.4496 62.0318C16.2978 63.5459 18.4469 64.6496 20.7543 65.2695C22.1845 65.661 23.6599 65.8632 25.1427 65.8711C25.9652 65.87 26.7865 65.8087 27.6001 65.6876C29.4231 68.0346 31.8347 69.8575 34.59 70.9712C37.3452 72.085 40.3461 72.4499 43.288 72.029C46.2299 71.6081 49.0081 70.4163 51.3405 68.5746C53.6729 66.7329 55.4766 64.3069 56.5683 61.5428C59.5144 61.1396 62.3012 59.9636 64.6455 58.1344C66.9898 56.3053 68.8082 53.8881 69.9157 51.1285C71.0233 48.369 71.3806 45.3654 70.9513 42.423C70.522 39.4807 69.3215 36.7044 67.4716 34.3763V34.3612ZM54.9982 16.3715C58.0304 17.1821 60.6257 19.1454 62.2306 21.8426C63.8354 24.5399 64.3227 27.7575 63.5886 30.809C63.303 30.6178 63.0111 30.4362 62.7133 30.2646L49.3285 22.5225C48.9627 22.3113 48.5478 22.2001 48.1254 22.2001C47.703 22.2001 47.2881 22.3113 46.9223 22.5225L33.6879 30.1653V24.6069L45.8695 17.5746C47.2362 16.7808 48.7466 16.2658 50.3135 16.0593C51.8803 15.8528 53.4726 15.9589 54.9982 16.3715ZM43.3129 41.2792L38.5004 44.0584L33.6879 41.2792V35.7208L38.5004 32.9415L43.3129 35.7208V41.2792ZM24.0629 21.6562C24.064 19.3041 24.7545 17.0039 26.0491 15.0401C27.3437 13.0763 29.1855 11.5351 31.3467 10.6069C33.5079 9.67882 35.8938 9.40456 38.2093 9.81807C40.5248 10.2316 42.6683 11.3147 44.3746 12.9336C44.0739 13.087 43.7731 13.2344 43.4723 13.4208L30.0785 21.1359C29.7131 21.3469 29.4096 21.6502 29.1984 22.0156C28.9872 22.3809 28.8758 22.7953 28.8754 23.2173V38.5L24.0629 35.7208V21.6562ZM12.2903 26.1469C13.8234 23.4732 16.3298 21.4948 19.2865 20.6246C19.2639 20.968 19.2519 21.3121 19.2504 21.6562V37.1104C19.2503 37.5329 19.3614 37.9479 19.5726 38.3138C19.7838 38.6797 20.0876 38.9836 20.4535 39.1948L33.6879 46.8346L28.8754 49.6289L16.6938 42.5816C13.9305 40.9861 11.9142 38.3583 11.0884 35.2762C10.2626 32.1941 10.6949 28.9102 12.2903 26.1469ZM22.0025 60.6285C18.9704 59.8179 16.3751 57.8546 14.7702 55.1573C13.1654 52.4601 12.678 49.2425 13.4122 46.191C13.698 46.3805 13.9867 46.5639 14.2875 46.7354L27.6723 54.4775C28.0381 54.6887 28.453 54.7999 28.8754 54.7999C29.2978 54.7999 29.7127 54.6887 30.0785 54.4775L43.3129 46.8346V52.3931L31.1313 59.4253C29.7646 60.2191 28.2542 60.7342 26.6873 60.9407C25.1204 61.1472 23.5282 61.0411 22.0025 60.6285ZM52.9379 55.3437C52.9392 57.6965 52.2506 59.9981 50.9573 61.9635C49.664 63.929 47.8228 65.4721 45.6616 66.402C43.5003 67.3319 41.1139 67.6076 38.7975 67.1952C36.4812 66.7827 34.3366 65.7001 32.6291 64.0814C32.9299 63.928 33.2307 63.7656 33.5315 63.5912L46.9223 55.8641C47.2877 55.6531 47.5912 55.3497 47.8024 54.9844C48.0136 54.6191 48.125 54.2046 48.1254 53.7827V38.5L52.9379 41.2792V55.3437ZM64.7105 50.8531C63.1774 53.5268 60.671 55.5052 57.7143 56.3754C57.7354 56.0325 57.7504 55.6896 57.7504 55.3437V39.8896C57.7505 39.4671 57.6393 39.0521 57.4282 38.6862C57.217 38.3203 56.9131 38.0164 56.5473 37.8052L43.3129 30.1653L48.1254 27.3861L60.307 34.4184C63.0703 36.0139 65.0866 38.6417 65.9124 41.7238C66.7382 44.8059 66.3058 48.0897 64.7105 50.8531Z" fill="#0047FF"/>
</g>
</svg>
