<svg xmlns="http://www.w3.org/2000/svg" width="84" height="82" viewBox="0 0 84 82" fill="none">
  <path d="M53.262 32.2143C56.16 32.2143 58.512 34.5103 58.512 37.3393V57.1042C58.512 61.3769 56.7733 65.4745 53.6784 68.4957C50.5835 71.517 46.3859 73.2143 42.009 73.2143C37.6321 73.2143 33.4345 71.517 30.3396 68.4957C27.2447 65.4745 25.506 61.3769 25.506 57.1042V37.3393C25.506 34.5103 27.855 32.2143 30.756 32.2143H53.262ZM11.25 32.2143L24.396 32.2084C23.3149 33.4801 22.6641 35.0475 22.533 36.695L22.503 37.3393V57.1042C22.503 60.4223 23.376 63.5441 24.903 66.2618C22.8478 67.138 20.6014 67.5006 18.3666 67.3168C16.1319 67.133 13.9793 66.4086 12.1032 65.2091C10.2271 64.0096 8.68675 62.3727 7.62119 60.4464C6.55562 58.52 5.99845 56.3649 6 54.1756V37.3393C6 36.666 6.1359 35.9993 6.39992 35.3773C6.66395 34.7554 7.05093 34.1903 7.53875 33.7143C8.02658 33.2384 8.60569 32.8609 9.24299 32.6036C9.8803 32.3462 10.5603 32.2139 11.25 32.2143ZM59.625 32.2084L72.75 32.2143C75.648 32.2143 78 34.5103 78 37.3393V54.1786C78.0009 56.3667 77.4437 58.5206 76.3786 60.4459C75.3135 62.3712 73.7741 64.0073 71.8993 65.2066C70.0244 66.4059 67.8732 67.1306 65.6397 67.3154C63.4063 67.5001 61.1608 67.139 59.106 66.2648L59.274 65.9661C60.561 63.5851 61.344 60.9026 61.488 58.0589L61.512 57.1042V37.3393C61.512 35.3888 60.804 33.6024 59.625 32.2084ZM42 8.78571C43.3789 8.78571 44.7443 9.05083 46.0182 9.56594C47.2921 10.0811 48.4496 10.8361 49.4246 11.7879C50.3996 12.7397 51.1731 13.8696 51.7007 15.1132C52.2284 16.3568 52.5 17.6897 52.5 19.0357C52.5 20.3818 52.2284 21.7146 51.7007 22.9582C51.1731 24.2018 50.3996 25.3317 49.4246 26.2835C48.4496 27.2353 47.2921 27.9904 46.0182 28.5055C44.7443 29.0206 43.3789 29.2857 42 29.2857C39.2152 29.2857 36.5445 28.2058 34.5754 26.2835C32.6062 24.3613 31.5 21.7542 31.5 19.0357C31.5 16.3172 32.6062 13.7101 34.5754 11.7879C36.5445 9.86561 39.2152 8.78571 42 8.78571ZM66.009 11.7143C67.1909 11.7143 68.3612 11.9415 69.4532 12.383C70.5451 12.8246 71.5372 13.4717 72.373 14.2876C73.2087 15.1034 73.8716 16.0719 74.3239 17.1378C74.7762 18.2038 75.009 19.3462 75.009 20.5C75.009 21.6537 74.7762 22.7962 74.3239 23.8621C73.8716 24.9281 73.2087 25.8966 72.373 26.7124C71.5372 27.5283 70.5451 28.1754 69.4532 28.6169C68.3612 29.0585 67.1909 29.2857 66.009 29.2857C63.6221 29.2857 61.3329 28.3601 59.645 26.7124C57.9572 25.0648 57.009 22.8301 57.009 20.5C57.009 18.1699 57.9572 15.9352 59.645 14.2876C61.3329 12.6399 63.6221 11.7143 66.009 11.7143ZM17.991 11.7143C19.1729 11.7143 20.3432 11.9415 21.4352 12.383C22.5271 12.8246 23.5192 13.4717 24.355 14.2876C25.1907 15.1034 25.8536 16.0719 26.3059 17.1378C26.7582 18.2038 26.991 19.3462 26.991 20.5C26.991 21.6537 26.7582 22.7962 26.3059 23.8621C25.8536 24.9281 25.1907 25.8966 24.355 26.7124C23.5192 27.5283 22.5271 28.1754 21.4352 28.6169C20.3432 29.0585 19.1729 29.2857 17.991 29.2857C15.6041 29.2857 13.3149 28.3601 11.627 26.7124C9.93921 25.0648 8.991 22.8301 8.991 20.5C8.991 18.1699 9.93921 15.9352 11.627 14.2876C13.3149 12.6399 15.6041 11.7143 17.991 11.7143Z" fill="#0047FF"/>
</svg>