<svg xmlns="http://www.w3.org/2000/svg" width="66" height="76" viewBox="0 0 66 76" fill="none">
  <path fill-rule="evenodd" clip-rule="evenodd" d="M47.3333 0.75C48.2837 0.75 49.1951 1.12753 49.8671 1.79953C50.5391 2.47154 50.9167 3.38297 50.9167 4.33333V7.91667H58.0833C59.9841 7.91667 61.8069 8.67172 63.1509 10.0157C64.4949 11.3597 65.25 13.1826 65.25 15.0833V58.0833C65.25 59.9841 64.4949 61.8069 63.1509 63.1509C61.8069 64.4949 59.9841 65.25 58.0833 65.25H7.91667C6.01595 65.25 4.19308 64.4949 2.84907 63.1509C1.50506 61.8069 0.75 59.9841 0.75 58.0833V15.0833C0.75 13.1826 1.50506 11.3597 2.84907 10.0157C4.19308 8.67172 6.01595 7.91667 7.91667 7.91667H15.0833V4.33333C15.0833 3.38297 15.4609 2.47154 16.1329 1.79953C16.8049 1.12753 17.7163 0.75 18.6667 0.75C19.617 0.75 20.5285 1.12753 21.2005 1.79953C21.8725 2.47154 22.25 3.38297 22.25 4.33333V7.91667H43.75V4.33333C43.75 3.38297 44.1275 2.47154 44.7995 1.79953C45.4715 1.12753 46.383 0.75 47.3333 0.75ZM18.7025 47.3333H18.6667C17.7533 47.3343 16.8749 47.6841 16.2108 48.311C15.5466 48.938 15.147 49.7949 15.0935 50.7067C15.0399 51.6184 15.3366 52.5162 15.9228 53.2166C16.509 53.9169 17.3405 54.367 18.2474 54.4749L18.7025 54.5C19.6529 54.5 20.5643 54.1225 21.2363 53.4505C21.9083 52.7785 22.2858 51.867 22.2858 50.9167C22.2858 49.9663 21.9083 49.0549 21.2363 48.3829C20.5643 47.7109 19.6529 47.3333 18.7025 47.3333ZM33.0358 47.3333H33C32.0867 47.3343 31.2082 47.6841 30.5441 48.311C29.88 48.938 29.4803 49.7949 29.4268 50.7067C29.3733 51.6184 29.6699 52.5162 30.2561 53.2166C30.8423 53.9169 31.6738 54.367 32.5808 54.4749L33.0358 54.5C33.9862 54.5 34.8976 54.1225 35.5696 53.4505C36.2416 52.7785 36.6192 51.867 36.6192 50.9167C36.6192 49.9663 36.2416 49.0549 35.5696 48.3829C34.8976 47.7109 33.9862 47.3333 33.0358 47.3333ZM47.3692 47.3333H47.3333C46.42 47.3343 45.5415 47.6841 44.8774 48.311C44.2133 48.938 43.8137 49.7949 43.7601 50.7067C43.7066 51.6184 44.0032 52.5162 44.5894 53.2166C45.1756 53.9169 46.0072 54.367 46.9141 54.4749L47.3692 54.5C48.3195 54.5 49.231 54.1225 49.903 53.4505C50.575 52.7785 50.9525 51.867 50.9525 50.9167C50.9525 49.9663 50.575 49.0549 49.903 48.3829C49.231 47.7109 48.3195 47.3333 47.3692 47.3333ZM18.7025 33H18.6667C17.7533 33.001 16.8749 33.3507 16.2108 33.9777C15.5466 34.6047 15.147 35.4616 15.0935 36.3733C15.0399 37.2851 15.3366 38.1829 15.9228 38.8832C16.509 39.5836 17.3405 40.0337 18.2474 40.1416L18.7025 40.1667C19.6529 40.1667 20.5643 39.7891 21.2363 39.1171C21.9083 38.4451 22.2858 37.5337 22.2858 36.5833C22.2858 35.633 21.9083 34.7215 21.2363 34.0495C20.5643 33.3775 19.6529 33 18.7025 33ZM33.0358 33H33C32.0867 33.001 31.2082 33.3507 30.5441 33.9777C29.88 34.6047 29.4803 35.4616 29.4268 36.3733C29.3733 37.2851 29.6699 38.1829 30.2561 38.8832C30.8423 39.5836 31.6738 40.0337 32.5808 40.1416L33.0358 40.1667C33.9862 40.1667 34.8976 39.7891 35.5696 39.1171C36.2416 38.4451 36.6192 37.5337 36.6192 36.5833C36.6192 35.633 36.2416 34.7215 35.5696 34.0495C34.8976 33.3775 33.9862 33 33.0358 33ZM47.3692 33H47.3333C46.42 33.001 45.5415 33.3507 44.8774 33.9777C44.2133 34.6047 43.8137 35.4616 43.7601 36.3733C43.7066 37.2851 44.0032 38.1829 44.5894 38.8832C45.1756 39.5836 46.0072 40.0337 46.9141 40.1416L47.3692 40.1667C48.3195 40.1667 49.231 39.7891 49.903 39.1171C50.575 38.4451 50.9525 37.5337 50.9525 36.5833C50.9525 35.633 50.575 34.7215 49.903 34.0495C49.231 33.3775 48.3195 33 47.3692 33ZM58.0833 15.0833H7.91667V22.25H58.0833V15.0833Z" fill="#0047FF"/>
</svg>