<svg xmlns="http://www.w3.org/2000/svg" width="45" height="45" viewBox="0 0 45 45" fill="none">
  <path d="M35.6253 20.6255H14.6815L23.8315 11.4755C24.5628 10.7442 24.5628 9.54423 23.8315 8.81298C23.6581 8.63916 23.452 8.50126 23.2252 8.40717C22.9984 8.31308 22.7552 8.26465 22.5097 8.26465C22.2641 8.26465 22.0209 8.31308 21.7941 8.40717C21.5673 8.50126 21.3612 8.63916 21.1878 8.81298L8.83154 21.1692C8.65772 21.3427 8.51982 21.5487 8.42572 21.7756C8.33163 22.0024 8.2832 22.2455 8.2832 22.4911C8.2832 22.7367 8.33163 22.9798 8.42572 23.2067C8.51982 23.4335 8.65772 23.6395 8.83154 23.813L21.1878 36.1692C21.3614 36.3428 21.5675 36.4805 21.7943 36.5745C22.0211 36.6684 22.2642 36.7168 22.5097 36.7168C22.7552 36.7168 22.9982 36.6684 23.2251 36.5745C23.4519 36.4805 23.6579 36.3428 23.8315 36.1692C24.0051 35.9956 24.1428 35.7896 24.2368 35.5627C24.3307 35.3359 24.3791 35.0928 24.3791 34.8474C24.3791 34.6019 24.3307 34.3588 24.2368 34.132C24.1428 33.9052 24.0051 33.6991 23.8315 33.5255L14.6815 24.3755H35.6253C36.6565 24.3755 37.5003 23.5317 37.5003 22.5005C37.5003 21.4692 36.6565 20.6255 35.6253 20.6255Z" fill="#A1A6A9"/>
</svg>