<svg xmlns="http://www.w3.org/2000/svg" width="28" height="28" viewBox="0 0 28 28" fill="none">
  <path d="M10.4995 17.4997L17.4995 10.4997M12.8329 6.99971L13.373 6.37437C14.4671 5.28042 15.951 4.66591 17.4982 4.66602C19.0454 4.66613 20.5292 5.28085 21.6231 6.37496C22.7171 7.46906 23.3316 8.95293 23.3315 10.5001C23.3314 12.0473 22.7166 13.5311 21.6225 14.625L20.9995 15.1664M15.1662 20.9997L14.703 21.6227C13.5959 22.7167 12.1021 23.3302 10.5456 23.3302C8.98912 23.3302 7.49536 22.7167 6.38819 21.6227C5.84232 21.0834 5.40893 20.4411 5.11314 19.7331C4.81735 19.025 4.66504 18.2653 4.66504 17.498C4.66504 16.7306 4.81735 15.9709 5.11314 15.2628C5.40893 14.5548 5.84232 13.9125 6.38819 13.3732L6.99952 12.833" stroke="#789EFF" stroke-width="2" stroke-linecap="round" stroke-linejoin="round"/>
</svg>