<svg width="90" height="90" viewBox="0 0 90 90" fill="none" xmlns="http://www.w3.org/2000/svg">
  <path fill-rule="evenodd" clip-rule="evenodd" d="M44.9999 4.9443e-10C50.9094 -2.77003e-05 56.761 1.16391 62.2207 3.42535C67.6803 5.6868 72.6411 9.00146 76.8198 13.1801C80.9984 17.3587 84.3131 22.3195 86.5746 27.7791C88.836 33.2388 90 39.0904 90 44.9999C90 69.8527 69.8527 90 44.9999 90C20.1473 90 0 69.8527 0 44.9999C0 20.1473 20.1473 4.9443e-10 44.9999 4.9443e-10ZM49.5 49.5H40.5C29.3593 49.5 19.7948 56.2473 15.6695 65.8789C22.1967 75.0317 32.9014 80.9999 44.9999 80.9999C57.0984 80.9999 67.8031 75.0317 74.3305 65.8783C70.2052 56.2473 60.6407 49.5 49.5 49.5ZM44.9999 13.5C37.5441 13.5 31.4999 19.5442 31.4999 27C31.4999 34.4558 37.5441 40.5 44.9999 40.5C52.4557 40.5 58.4999 34.4558 58.4999 27C58.4999 19.5442 52.4559 13.5 44.9999 13.5Z" fill="#467AFF"/>
</svg>
