<svg xmlns="http://www.w3.org/2000/svg" width="44" height="44" viewBox="0 0 44 44" fill="none">
  <path d="M9.16667 38.4996C8.15833 38.4996 7.29544 38.1409 6.578 37.4234C5.86056 36.706 5.50122 35.8425 5.5 34.8329V9.16628C5.5 8.15794 5.85933 7.29505 6.578 6.57761C7.29667 5.86016 8.15956 5.50083 9.16667 5.49961H21.1292C21.7403 5.49961 22.1986 5.69089 22.5042 6.07344C22.8097 6.456 22.9625 6.87583 22.9625 7.33294C22.9625 7.79005 22.8024 8.2105 22.4822 8.59428C22.1619 8.97805 21.6957 9.16872 21.0833 9.16628H9.16667V34.8329H34.8333V22.8704C34.8333 22.2593 35.0246 21.801 35.4072 21.4954C35.7897 21.1899 36.2096 21.0371 36.6667 21.0371C37.1238 21.0371 37.5442 21.1899 37.928 21.4954C38.3118 21.801 38.5024 22.2593 38.5 22.8704V34.8329C38.5 35.8413 38.1413 36.7048 37.4238 37.4234C36.7064 38.1421 35.8429 38.5008 34.8333 38.4996H9.16667ZM16.5 25.6663V21.2204C16.5 20.7316 16.5917 20.2653 16.775 19.8216C16.9583 19.3779 17.2181 18.9887 17.5542 18.6538L33.3208 2.88711C33.6875 2.52044 34.1 2.24544 34.5583 2.06211C35.0167 1.87878 35.475 1.78711 35.9333 1.78711C36.4222 1.78711 36.8885 1.87878 37.3322 2.06211C37.7758 2.24544 38.1804 2.52044 38.5458 2.88711L41.1125 5.49961C41.4486 5.86628 41.7083 6.27144 41.8917 6.71511C42.075 7.15878 42.1667 7.60917 42.1667 8.06628C42.1667 8.52339 42.0829 8.97439 41.9155 9.41928C41.7481 9.86416 41.4804 10.2687 41.1125 10.6329L25.3458 26.3996C25.0097 26.7357 24.6204 27.0034 24.178 27.2026C23.7356 27.4018 23.2693 27.5008 22.7792 27.4996H18.3333C17.8139 27.4996 17.3788 27.3236 17.028 26.9716C16.6772 26.6196 16.5012 26.1845 16.5 25.6663ZM20.1667 23.8329H22.7333L33.3667 13.1996L32.0833 11.9163L30.7542 10.6329L20.1667 21.2204V23.8329Z" fill="#A1A6A9"/>
</svg>