<svg xmlns="http://www.w3.org/2000/svg" width="30" height="30" viewBox="0 0 30 30" fill="none">
  <path d="M15 2.5C8.0875 2.5 2.5 8.0875 2.5 15C2.5 21.9125 8.0875 27.5 15 27.5C21.9125 27.5 27.5 21.9125 27.5 15C27.5 8.0875 21.9125 2.5 15 2.5ZM18.875 8.8375C19.05 8.8375 19.225 8.9 19.375 9.0375L20.9625 10.625C21.25 10.9 21.25 11.3375 20.9625 11.6L19.7125 12.85L17.15 10.2875L18.4 9.0375C18.525 8.9 18.7 8.8375 18.875 8.8375ZM16.4125 11.0125L18.9875 13.5875L11.4125 21.1625H8.8375V18.5875L16.4125 11.0125Z" fill="#D8DCDE"/>
</svg>